<mxfile host="65bd71144e">
    <diagram id="StAiIr05Q3fptfPiH1wn" name="Page-1">
        <mxGraphModel dx="617" dy="554" grid="1" gridSize="10" guides="1" tooltips="1" connect="1" arrows="1" fold="1" page="1" pageScale="1" pageWidth="850" pageHeight="1100" math="0" shadow="0">
            <root>
                <mxCell id="0"/>
                <mxCell id="1" parent="0"/>
                <mxCell id="2" value="cloudflare" style="ellipse;shape=cloud;whiteSpace=wrap;html=1;" vertex="1" parent="1">
                    <mxGeometry x="330" y="240" width="120" height="80" as="geometry"/>
                </mxCell>
                <mxCell id="3" value="http://???.louislabs.com" style="whiteSpace=wrap;html=1;shape=mxgraph.basic.cloud_rect" vertex="1" parent="1">
                    <mxGeometry x="150" y="235" width="160" height="90" as="geometry"/>
                </mxCell>
                <mxCell id="7" value="Host / Docker" style="rounded=1;whiteSpace=wrap;html=1;verticalAlign=top;align=center;" vertex="1" parent="1">
                    <mxGeometry x="470" y="190" width="210" height="180" as="geometry"/>
                </mxCell>
                <mxCell id="6" value="Traefik" style="rounded=1;whiteSpace=wrap;html=1;" vertex="1" parent="1">
                    <mxGeometry x="490" y="250" width="70" height="60" as="geometry"/>
                </mxCell>
                <mxCell id="8" value="nodejs app" style="rounded=1;whiteSpace=wrap;html=1;" vertex="1" parent="1">
                    <mxGeometry x="580" y="220" width="70" height="40" as="geometry"/>
                </mxCell>
                <mxCell id="9" value="mongodb" style="rounded=1;whiteSpace=wrap;html=1;" vertex="1" parent="1">
                    <mxGeometry x="580" y="270" width="70" height="40" as="geometry"/>
                </mxCell>
                <mxCell id="10" value="uptime-kuma" style="rounded=1;whiteSpace=wrap;html=1;" vertex="1" parent="1">
                    <mxGeometry x="540" y="320" width="110" height="40" as="geometry"/>
                </mxCell>
                <mxCell id="11" value="" style="endArrow=classic;html=1;exitX=0.998;exitY=0.507;exitDx=0;exitDy=0;exitPerimeter=0;entryX=0.074;entryY=0.495;entryDx=0;entryDy=0;entryPerimeter=0;" edge="1" parent="1" source="3" target="2">
                    <mxGeometry width="50" height="50" relative="1" as="geometry">
                        <mxPoint x="290" y="280" as="sourcePoint"/>
                        <mxPoint x="340" y="230" as="targetPoint"/>
                    </mxGeometry>
                </mxCell>
                <mxCell id="13" value="" style="endArrow=classic;html=1;exitX=0.875;exitY=0.5;exitDx=0;exitDy=0;exitPerimeter=0;entryX=0;entryY=0.5;entryDx=0;entryDy=0;" edge="1" parent="1" source="2" target="7">
                    <mxGeometry width="50" height="50" relative="1" as="geometry">
                        <mxPoint x="440.88" y="280.52" as="sourcePoint"/>
                        <mxPoint x="470" y="270" as="targetPoint"/>
                    </mxGeometry>
                </mxCell>
                <mxCell id="14" value="" style="endArrow=classic;html=1;exitX=0.006;exitY=0.503;exitDx=0;exitDy=0;exitPerimeter=0;entryX=0.011;entryY=0.501;entryDx=0;entryDy=0;entryPerimeter=0;" edge="1" parent="1" source="7" target="6">
                    <mxGeometry width="50" height="50" relative="1" as="geometry">
                        <mxPoint x="470" y="310" as="sourcePoint"/>
                        <mxPoint x="520" y="260" as="targetPoint"/>
                    </mxGeometry>
                </mxCell>
                <mxCell id="15" value="" style="endArrow=classic;html=1;entryX=0.011;entryY=0.501;entryDx=0;entryDy=0;entryPerimeter=0;exitX=0.999;exitY=0.211;exitDx=0;exitDy=0;exitPerimeter=0;" edge="1" parent="1" source="6">
                    <mxGeometry width="50" height="50" relative="1" as="geometry">
                        <mxPoint x="560" y="250" as="sourcePoint"/>
                        <mxPoint x="580" y="250" as="targetPoint"/>
                    </mxGeometry>
                </mxCell>
                <mxCell id="16" value="" style="endArrow=classic;html=1;entryX=0.011;entryY=0.501;entryDx=0;entryDy=0;entryPerimeter=0;" edge="1" parent="1">
                    <mxGeometry width="50" height="50" relative="1" as="geometry">
                        <mxPoint x="560" y="289.9" as="sourcePoint"/>
                        <mxPoint x="580" y="289.9" as="targetPoint"/>
                    </mxGeometry>
                </mxCell>
                <mxCell id="17" value="" style="endArrow=classic;html=1;entryX=0.011;entryY=0.501;entryDx=0;entryDy=0;entryPerimeter=0;exitX=0.425;exitY=1.01;exitDx=0;exitDy=0;exitPerimeter=0;" edge="1" parent="1" source="6">
                    <mxGeometry width="50" height="50" relative="1" as="geometry">
                        <mxPoint x="520" y="339.9" as="sourcePoint"/>
                        <mxPoint x="540" y="339.9" as="targetPoint"/>
                    </mxGeometry>
                </mxCell>
            </root>
        </mxGraphModel>
    </diagram>
</mxfile>